<?xml version="1.0" encoding="utf-8"?>
<!-- Generator: Adobe Illustrator 23.0.1, SVG Export Plug-In . SVG Version: 6.00 Build 0)  -->
<svg version="1.1" id="Capa_1" xmlns="http://www.w3.org/2000/svg" xmlns:xlink="http://www.w3.org/1999/xlink" x="0px" y="0px"
	 viewBox="0 0 512 512" style="enable-background:new 0 0 512 512;" xml:space="preserve">
<style type="text/css">
	.st0{fill:#A6B4B3;}
</style>
<g>
	<path class="st0" d="M210.7,191h232c4.2,0,7.6-3.4,7.6-7.6s-3.4-7.6-7.6-7.6h-232c-4.2,0-7.6,3.4-7.6,7.6S206.5,191,210.7,191z"/>
	<path class="st0" d="M210.7,246h232c4.2,0,7.6-3.4,7.6-7.6s-3.4-7.6-7.6-7.6h-232c-4.2,0-7.6,3.4-7.6,7.6S206.5,246,210.7,246z"/>
	<path class="st0" d="M272.6,286H183c-4.2,0-7.6,3.4-7.6,7.5s3.4,7.5,7.6,7.5h89.6c4.2,0,7.6-3.4,7.6-7.5S276.8,286,272.6,286z"/>
	<path class="st0" d="M78,293.5c0,4.2,3.4,7.5,7.6,7.5h57.5c4.2,0,7.6-3.4,7.6-7.5s-3.4-7.5-7.6-7.5H85.5
		C81.4,286,78,289.3,78,293.5z"/>
	<path class="st0" d="M99.9,263.9c4.2,0,7.6-3.4,7.6-7.5s-3.4-7.6-7.6-7.6c-4.2,0-9.2-2.1-9.2-12.2v-10.6c0-6.2-1.8-10.4-4.2-13.4
		c2.4-2.9,4.2-7.1,4.2-13.3v-10.6c0-10.1,5-12.2,9.2-12.2c4.2,0,7.6-3.4,7.6-7.6s-3.4-7.6-7.6-7.6c-12.1,0-24.4,8.5-24.4,27.3v10.6
		c0,4-0.7,4.2-4.2,5.5c-0.8,0.3-1.6,0.6-2.4,1c-3.8,1.8-5.4,6.2-3.7,10c0.7,1.5,1.8,2.6,3.1,3.4c0.2,0.1,2.3,1,3,1.3
		c3.5,1.3,4.2,1.5,4.2,5.5v10.6C75.5,255.5,87.7,263.9,99.9,263.9z"/>
	<path class="st0" d="M148.4,235.4c0,10.1-5,12.2-9.2,12.2c-4.2,0-7.6,3.4-7.6,7.6c0,4.2,3.4,7.5,7.6,7.5c12.1,0,24.4-8.5,24.4-27.3
		v-10.6c0-4,0.7-4.2,4.2-5.5c0.8-0.3,1.5-0.6,2.3-0.9c0,0,0.3-0.2,0.4-0.2c1.4-0.8,2.7-2,3.4-3.5c1.7-3.8,0.1-8.3-3.7-10
		c-0.8-0.4-1.6-0.7-2.4-1c-3.5-1.3-4.2-1.5-4.2-5.5v-10.6c0-18.9-12.2-27.3-24.4-27.3c-4.2,0-7.6,3.4-7.6,7.6s3.4,7.6,7.6,7.6
		c4.2,0,9.2,2.1,9.2,12.2v10.6c0,6.2,1.8,10.4,4.2,13.4c-2.4,2.9-4.2,7.1-4.2,13.3L148.4,235.4L148.4,235.4z"/>
	<path class="st0" d="M267.7,341H84.6c-4.2,0-7.6,3.4-7.6,7.5s3.4,7.5,7.6,7.5h183.1c4.2,0,7.6-3.4,7.6-7.5S271.8,341,267.7,341z"/>
	<path class="st0" d="M266.7,396H83.6c-4.2,0-7.6,3.4-7.6,7.5s3.4,7.5,7.6,7.5h183.1c4.2,0,7.6-3.4,7.6-7.5S270.8,396,266.7,396z"/>
	<path class="st0" d="M432.6,96.9c13,0,23.6-10.6,23.6-23.6s-10.6-23.6-23.6-23.6c-13,0-23.6,10.6-23.6,23.6S419.6,96.9,432.6,96.9z
		 M432.6,64.9c4.7,0,8.5,3.8,8.5,8.5s-3.8,8.5-8.5,8.5c-4.7,0-8.5-3.8-8.5-8.5S427.9,64.9,432.6,64.9z"/>
	<path class="st0" d="M364.4,96.9c13,0,23.6-10.6,23.6-23.6s-10.6-23.6-23.6-23.6c-13,0-23.6,10.6-23.6,23.6S351.4,96.9,364.4,96.9z
		 M364.4,64.9c4.7,0,8.5,3.8,8.5,8.5s-3.8,8.5-8.5,8.5c-4.7,0-8.5-3.8-8.5-8.5S359.8,64.9,364.4,64.9z"/>
	<path class="st0" d="M296.3,96.9c13,0,23.6-10.6,23.6-23.6s-10.6-23.6-23.6-23.6c-13,0-23.6,10.6-23.6,23.6S283.2,96.9,296.3,96.9z
		 M296.3,64.9c4.7,0,8.5,3.8,8.5,8.5s-3.8,8.5-8.5,8.5s-8.5-3.8-8.5-8.5C287.8,68.7,291.6,64.9,296.3,64.9z"/>
	<path class="st0" d="M453.7,18.5H58.3C26.2,18.5,0,44.6,0,76.8v358.5c0,32.1,26.2,58.3,58.3,58.3h395.3c32.2,0,58.3-26.1,58.3-58.3
		V76.8C512,44.6,485.8,18.5,453.7,18.5L453.7,18.5z M453.7,478.4H58.3c-23.8,0-43.2-19.4-43.2-43.2V129.5h111c4.2,0,7.6-3.4,7.6-7.6
		s-3.4-7.6-7.6-7.6h-111V76.8c0-23.8,19.4-43.2,43.2-43.2h395.3c23.8,0,43.2,19.4,43.2,43.2v37.7H160.8c-4.2,0-7.6,3.4-7.6,7.6
		s3.4,7.6,7.6,7.6h336.1v305.7C496.9,459,477.5,478.4,453.7,478.4z"/>
	<path class="st0" d="M448.7,333.2h-2c-0.5-1.4-1.1-2.9-1.8-4.3l1.4-1.4c2.9-2.9,4.5-6.8,4.5-10.9c0-4.1-1.6-7.9-4.5-10.8
		l-14.6-14.6c-2.9-2.9-6.7-4.5-10.9-4.5c-4.1,0-8,1.6-10.9,4.5l-1.4,1.4c-1.4-0.6-2.8-1.2-4.3-1.8v-2c0-8.4-6.9-15.3-15.4-15.3
		h-20.7c-8.5,0-15.4,6.9-15.4,15.3v2.4c-1.3,0.5-2.6,1.1-3.9,1.7l-1.8-1.8c-2.9-2.9-6.7-4.5-10.9-4.5c0,0,0,0,0,0
		c-4.1,0-7.9,1.6-10.8,4.5l-14.6,14.6c-2.9,2.9-4.5,6.7-4.5,10.8c0,4.1,1.6,8,4.5,10.9l2.2,2.2c-0.5,1.2-1,2.3-1.4,3.5h-3.1
		c-8.4,0-15.3,6.9-15.3,15.3v20.7c0,8.5,6.9,15.3,15.3,15.3h3.6c0.4,1.1,0.9,2.1,1.3,3.2l-2.5,2.5c-6,6-6,15.7,0,21.7l14.6,14.6
		c2.9,2.9,6.7,4.5,10.8,4.5h0c4.1,0,8-1.6,10.9-4.5l2.5-2.5c1.1,0.5,2.1,0.9,3.2,1.3v3.5c0,8.5,6.9,15.3,15.4,15.3H389
		c8.5,0,15.4-6.9,15.4-15.3v-3.1c1.2-0.4,2.4-0.9,3.5-1.4l2.2,2.2c2.9,2.9,6.7,4.5,10.9,4.5s8-1.6,10.9-4.5l14.6-14.6
		c2.9-2.9,4.5-6.7,4.5-10.8s-1.6-8-4.5-10.8l-1.8-1.7c0.6-1.3,1.2-2.6,1.7-3.9h2.4c8.5,0,15.4-6.9,15.4-15.3v-20.7
		C464,340.1,457.2,333.2,448.7,333.2L448.7,333.2z M448.9,369.2c0,0.1-0.1,0.2-0.2,0.2h-7.8c-3.3,0-6.3,2.2-7.2,5.4
		c-1.2,3.9-2.8,7.8-4.9,11.4c-1.7,3-1.2,6.7,1.2,9.1l5.6,5.6c0.1,0.1,0.1,0.3,0,0.3L421,415.9c0,0-0.3,0-0.3,0l-6-5.9
		c-2.3-2.3-5.9-2.9-8.9-1.3c-3.7,1.9-7.4,3.4-11.2,4.5c-3.3,0.9-5.5,3.9-5.5,7.3v8.6c0,0.1-0.1,0.2-0.2,0.2h-20.7
		c-0.1,0-0.2-0.1-0.2-0.2V420c0-3.3-2.2-6.3-5.4-7.2c-3.7-1.1-7.3-2.6-10.8-4.5c-1.1-0.6-2.4-0.9-3.6-0.9c-2,0-3.9,0.8-5.3,2.2
		l-6.3,6.3c0,0-0.1,0.1-0.2,0.1h0c-0.1,0-0.1,0-0.1-0.1l-14.6-14.6c-0.1-0.1-0.1-0.3,0-0.3l6.3-6.3c2.4-2.4,2.9-6,1.3-8.9
		c-1.9-3.4-3.4-7.1-4.5-10.8c-1-3.2-3.9-5.4-7.2-5.4h-8.9c-0.1,0-0.2-0.1-0.2-0.2v-20.7c0-0.1,0.1-0.2,0.2-0.2h8.6
		c3.4,0,6.4-2.2,7.3-5.5c1.1-3.8,2.6-7.5,4.5-11.1c1.6-2.9,1-6.5-1.3-8.9l-6-6c0,0-0.1-0.1-0.1-0.2c0-0.1,0-0.1,0.1-0.1l14.7-14.6
		c0,0,0,0,0,0c0,0,0,0,0.1,0h0c0.1,0,0.1,0,0.2,0.1l5.6,5.6c2.4,2.4,6.1,2.9,9,1.2c3.7-2.1,7.5-3.7,11.4-4.9c3.2-1,5.4-3.9,5.4-7.2
		v-7.8c0-0.1,0.1-0.2,0.2-0.2H389c0.1,0,0.2,0.1,0.2,0.2v7.5c0,3.4,2.2,6.3,5.5,7.3c4.1,1.1,8,2.8,11.8,4.8c2.9,1.6,6.6,1.1,9-1.3
		l5.2-5.2c0,0,0.3,0,0.3,0l14.7,14.7c0,0,0,0,0,0.1c0,0.1,0,0.1-0.1,0.2l-5.2,5.2c-2.4,2.4-2.9,6-1.3,9c2,3.7,3.7,7.7,4.8,11.8
		c0.9,3.2,3.9,5.5,7.3,5.5h7.5c0.1,0,0.2,0.1,0.2,0.2L448.9,369.2L448.9,369.2z"/>
	<path class="st0" d="M378.6,319.4c-21.8,0-39.5,17.7-39.5,39.5s17.7,39.5,39.5,39.5c21.8,0,39.5-17.7,39.5-39.5
		S400.4,319.4,378.6,319.4z M378.6,383.3c-13.5,0-24.4-10.9-24.4-24.4s11-24.4,24.4-24.4c13.5,0,24.4,10.9,24.4,24.4
		S392.1,383.3,378.6,383.3z"/>
</g>
</svg>
