<?xml version="1.0" encoding="utf-8"?>
<!-- Generator: Adobe Illustrator 23.0.1, SVG Export Plug-In . SVG Version: 6.00 Build 0)  -->
<svg version="1.1" id="圖層_1" xmlns="http://www.w3.org/2000/svg" xmlns:xlink="http://www.w3.org/1999/xlink" x="0px" y="0px"
	 viewBox="0 0 25 25" style="enable-background:new 0 0 25 25;" xml:space="preserve">
<style type="text/css">
	.st0{display:none;}
	.st1{fill:#E9E9E9;}
</style>
<rect x="-8.4" class="st0" width="25" height="25"/>
<rect x="16.6" class="st0" width="25" height="25"/>
<g>
	<g>
		<path class="st1" d="M12.5,1.4C6.3,1.4,1.2,6.5,1.2,12.8c0,5,3.2,9.3,7.7,10.8c0.6,0.1,0.8-0.2,0.8-0.5s0-1,0-1.9
			c-3.1,0.7-3.8-1.5-3.8-1.5C5.4,18.4,4.6,18,4.6,18c-1-0.7,0.1-0.7,0.1-0.7c1.1,0.1,1.7,1.2,1.7,1.2c1,1.7,2.6,1.2,3.3,0.9
			c0.1-0.7,0.4-1.2,0.7-1.5c-2.5-0.3-5.1-1.3-5.1-5.6c0-1.2,0.4-2.3,1.2-3C6.3,8.9,6,7.7,6.6,6.1c0,0,0.9-0.3,3.1,1.2
			c0.9-0.3,1.9-0.4,2.8-0.4c1,0,1.9,0.1,2.8,0.4c2.2-1.5,3.1-1.2,3.1-1.2c0.6,1.6,0.2,2.7,0.1,3c0.7,0.8,1.2,1.8,1.2,3
			c0,4.4-2.6,5.3-5.2,5.6c0.4,0.4,0.8,1,0.8,2.1c0,1.5,0,2.7,0,3.1c0,0.3,0.2,0.7,0.8,0.5c4.5-1.5,7.7-5.8,7.7-10.8
			C23.8,6.5,18.7,1.4,12.5,1.4L12.5,1.4z"/>
	</g>
</g>
</svg>
