<?xml version="1.0" encoding="utf-8"?>
<!-- Generator: Adobe Illustrator 23.0.1, SVG Export Plug-In . SVG Version: 6.00 Build 0)  -->
<svg version="1.1" id="圖層_1" xmlns="http://www.w3.org/2000/svg" xmlns:xlink="http://www.w3.org/1999/xlink" x="0px" y="0px"
	 viewBox="0 0 25 25" style="enable-background:new 0 0 25 25;" xml:space="preserve">
<style type="text/css">
	.st0{display:none;}
	.st1{fill:none;stroke:#E9E9E9;stroke-width:1.432;stroke-linecap:round;stroke-linejoin:round;stroke-miterlimit:10;}
</style>
<rect x="-8.4" class="st0" width="25" height="25"/>
<rect x="16.6" class="st0" width="25" height="25"/>
<path class="st1" d="M10.7,12.4c1.5,2.1,4.4,2.2,6.4,0.8c0.9-0.6,4-4,4.2-5c0.4-1.5-0.1-3.1-1.2-4.2c-1.8-1.6-4.5-1.6-6.2,0
	l-1.6,1.5"/>
<path class="st1" d="M14.3,10.6c-1.5-2.1-4.4-2.2-6.4-0.8c-0.9,0.6-4,4-4.2,5c-0.4,1.5,0.1,3.1,1.2,4.2c1.8,1.6,4.5,1.6,6.2,0
	l1.5-1.5"/>
</svg>
