<?xml version="1.0" encoding="utf-8"?>
<!-- Generator: Adobe Illustrator 23.0.1, SVG Export Plug-In . SVG Version: 6.00 Build 0)  -->
<svg version="1.1" id="圖層_1" xmlns="http://www.w3.org/2000/svg" xmlns:xlink="http://www.w3.org/1999/xlink" x="0px" y="0px"
	 viewBox="0 0 512 512" style="enable-background:new 0 0 512 512;" xml:space="preserve">
<style type="text/css">
	.st0{fill:#A6B4B3;}
</style>
<g id="Outline">
	<path class="st0" d="M32,168H16v-32c0-22.1,17.9-40,40-40h272V80h-16c-4.4,0-8-3.6-8-8c0-2.1,0.8-4.2,2.3-5.7l48-48
		c3.1-3.1,8.2-3.1,11.3,0c0,0,0,0,0,0l48,48c3.1,3.1,3.1,8.2,0,11.3c-1.5,1.5-3.5,2.3-5.7,2.3h-16v16h32c22.1,0,40,17.9,40,40v160
		h-16V136c0-13.2-10.8-24-24-24h-32v144h-16V72c0-4.4,3.6-8,8-8h4.7L360,35.3L331.3,64h4.7c4.4,0,8,3.6,8,8v192h-16V112H56
		c-13.2,0-24,10.8-24,24V168z M56,416h133.2L170,480h-18v16h176v-16h-18l-10.3-34.3l-15.3,4.6l8.9,29.7H186.7l19.2-64H264v-16H56
		c-13.2,0-24-10.8-24-24v-8h224v-16H32V184H16v192C16,398.1,33.9,416,56,416z M296,280V152h-32v184H56v-16h32v-64c0-4.4,3.6-8,8-8
		h48c4.4,0,8,3.6,8,8v64h16V200c0-4.4,3.6-8,8-8h48c4.4,0,8,3.6,8,8v120h16V144c0-4.4,3.6-8,8-8h48c4.4,0,8,3.6,8,8v136H296z
		 M136,264h-32v56h32V264z M216,208h-32v112h32V208z M56,128v16h16v-16H56z M104,128H88v16h16V128z M120,128v16h16v-16H120z
		 M489,455c4.5,4.5,7,10.6,7,17c0,13.2-10.7,24-24,24c0,0,0,0,0,0c-6.4-0.1-12.4-2.6-17-7l-38.3-38.3
		c-45.7,27-104.6,11.8-131.6-33.9c-27-45.7-11.8-104.6,33.9-131.6c45.7-27,104.6-11.8,131.6,33.9c17.8,30.1,17.8,67.5,0,97.6
		L489,455z M448,368c0-44.2-35.8-80-80-80s-80,35.8-80,80s35.8,80,80,80C412.2,447.9,447.9,412.2,448,368z M477.7,466.3L441.3,430
		c-3.5,4.1-7.2,7.9-11.3,11.3l36.4,36.4c3,3.2,8.1,3.3,11.3,0.3c3.2-3,3.3-8.1,0.3-11.3C477.8,466.5,477.7,466.4,477.7,466.3
		L477.7,466.3z M432,368c0,35.3-28.7,64-64,64s-64-28.7-64-64s28.7-64,64-64C403.3,304,432,332.7,432,368z M416,368
		c0-26.5-21.5-48-48-48s-48,21.5-48,48s21.5,48,48,48C394.5,416,416,394.5,416,368z M336,368h16c0-8.8,7.2-16,16-16v-16
		C350.3,336,336,350.3,336,368z M440,64h16c0-26.5-21.5-48-48-48v16C425.7,32,440,46.3,440,64z"/>
</g>
</svg>
