<?xml version="1.0" encoding="utf-8"?>
<!-- Generator: Adobe Illustrator 23.0.1, SVG Export Plug-In . SVG Version: 6.00 Build 0)  -->
<svg version="1.1" id="Capa_1" xmlns="http://www.w3.org/2000/svg" xmlns:xlink="http://www.w3.org/1999/xlink" x="0px" y="0px"
	 viewBox="0 0 512 512" style="enable-background:new 0 0 512 512;" xml:space="preserve">
<style type="text/css">
	.st0{fill:#A6B4B3;}
</style>
<g>
	<path class="st0" d="M421,0c-9.8,0-18.1,6.3-21.2,15H278.5V7.5c0-4.1-3.4-7.5-7.5-7.5h-30c-4.1,0-7.5,3.4-7.5,7.5V15H112.2
		C109.1,6.3,100.8,0,91,0C78.6,0,68.5,10.1,68.5,22.5S78.6,45,91,45c9.8,0,18.1-6.3,21.2-15h121.3v7.5c0,4.1,3.4,7.5,7.5,7.5h30
		c4.1,0,7.5-3.4,7.5-7.5V30h121.3c3.1,8.7,11.4,15,21.2,15c12.4,0,22.5-10.1,22.5-22.5S433.4,0,421,0z M91,30
		c-4.1,0-7.5-3.4-7.5-7.5S86.9,15,91,15s7.5,3.4,7.5,7.5S95.1,30,91,30z M263.5,30h-15V15h15V30z M421,30c-4.1,0-7.5-3.4-7.5-7.5
		s3.4-7.5,7.5-7.5s7.5,3.4,7.5,7.5S425.1,30,421,30z"/>
	<path class="st0" d="M382.5,260.8l-107-189.4c-4-7-11.5-11.4-19.6-11.4c-8.1,0-15.6,4.4-19.6,11.4l0,0
		c-0.4,0.7-107,189.4-107,189.4c-1,1.8-1.3,4-0.6,6.1l42.4,127.3c-7.6,3.6-12.8,11.4-12.8,20.3c0,7.9,4.1,14.8,10.2,18.9L139,473
		c-6.8,9-10.5,20.2-10.5,31.5c0,4.1,3.4,7.5,7.5,7.5h240c4.1,0,7.5-3.4,7.5-7.5c0-11.3-3.7-22.5-10.5-31.5l-29.7-39.6
		c6.2-4,10.2-11,10.2-18.9c0-8.9-5.2-16.7-12.8-20.3l42.5-127.3C383.8,264.9,383.6,262.7,382.5,260.8L382.5,260.8z M263.5,234.5v60
		c0,4.1-3.4,7.5-7.5,7.5s-7.5-3.4-7.5-7.5v-60c0-4.1,3.4-7.5,7.5-7.5C260.1,227,263.5,230.4,263.5,234.5L263.5,234.5z M367.7,497
		H144.3c1.1-5.4,3.4-10.6,6.7-15l33.8-45h142.5l33.8,45C364.3,486.4,366.6,491.6,367.7,497z M325.6,392H211c-4.1,0-7.5,3.4-7.5,7.5
		s3.4,7.5,7.5,7.5h119.8c0.1,0,0.2,0,0.3,0c4.1,0.1,7.4,3.4,7.4,7.5c0,4.1-3.4,7.5-7.5,7.5H181c-4.1,0-7.5-3.4-7.5-7.5
		s3.4-7.5,7.5-7.5c2.4,0,4.7-1.2,6.1-3.1c1.4-2,1.8-4.5,1-6.8l-43.9-131.8C156.8,242.8,238.7,98,248.5,80.5v132.7
		c-8.7,3.1-15,11.4-15,21.2v60c0,12.4,10.1,22.5,22.5,22.5c12.4,0,22.5-10.1,22.5-22.5v-60c0-9.8-6.3-18.1-15-21.2V80.5l104.3,184.8
		L325.6,392z"/>
</g>
</svg>
