<?xml version="1.0" encoding="utf-8"?>
<!-- Generator: Adobe Illustrator 23.0.1, SVG Export Plug-In . SVG Version: 6.00 Build 0)  -->
<svg version="1.1" id="圖層_1" xmlns="http://www.w3.org/2000/svg" xmlns:xlink="http://www.w3.org/1999/xlink" x="0px" y="0px"
	 viewBox="0 0 35 25" style="enable-background:new 0 0 35 25;" xml:space="preserve">
<style type="text/css">
	.st0{display:none;}
	.st1{fill:#E9E9E9;}
</style>
<rect x="-4.9" class="st0" width="25" height="25"/>
<rect x="20.1" class="st0" width="25" height="25"/>
<g>
	<rect x="22.2" y="4" class="st1" width="8.1" height="2.4"/>
	<g>
		<path class="st1" d="M26.4,7.8L26.4,7.8c-7.5,0-7.5,7.5-7.5,7.5s-0.5,7.5,7.5,7.5c0,0,6.7,0.4,6.7-5.2h-3.4c0,0,0.1,2.1-3.1,2.1
			c0,0-3.4,0.2-3.4-3.4h10.1C33.2,16.2,34.3,7.8,26.4,7.8z M29.4,13.6H23c0,0,0.4-3,3.4-3C29.5,10.6,29.4,13.6,29.4,13.6z"/>
	</g>
	<g>
		<path class="st1" d="M14.5,11.7c0,0,3-0.2,3-3.7c0-3.5-2.4-5.2-5.5-5.2H1.8v19.5h10.2c0,0,6.2,0.2,6.2-5.8
			C18.1,16.6,18.4,11.7,14.5,11.7z M6.2,6.3h5v0h0.7c0,0,1.4,0,1.4,2c0,2-0.8,2.3-1.7,2.3H6.2V6.3z M11.6,18.9H6.2v-5.2h5.7
			c0,0,2.1,0,2.1,2.7C14,18.6,12.4,18.8,11.6,18.9z"/>
	</g>
</g>
</svg>
