<?xml version="1.0" encoding="utf-8"?>
<!-- Generator: Adobe Illustrator 23.0.1, SVG Export Plug-In . SVG Version: 6.00 Build 0)  -->
<svg version="1.1" id="圖層_1" xmlns="http://www.w3.org/2000/svg" xmlns:xlink="http://www.w3.org/1999/xlink" x="0px" y="0px"
	 viewBox="0 0 25 25" style="enable-background:new 0 0 25 25;" xml:space="preserve">
<style type="text/css">
	.st0{display:none;}
	.st1{fill:#E9E9E9;}
</style>
<rect x="-8.4" class="st0" width="25" height="25"/>
<rect x="16.6" class="st0" width="25" height="25"/>
<path class="st1" d="M22.1,22l-4.8-4.8c1.2-1.4,1.9-3.3,1.9-5.3c0-4.6-3.7-8.3-8.3-8.3s-8.3,3.7-8.3,8.3s3.7,8.3,8.3,8.3
	c2,0,3.9-0.7,5.3-1.9l4.8,4.8c0.2,0.2,0.3,0.2,0.5,0.2s0.4-0.1,0.5-0.2C22.4,22.8,22.4,22.3,22.1,22z M4,11.8C4,8,7.1,5,10.8,5
	c3.8,0,6.8,3.1,6.8,6.8c0,3.8-3.1,6.8-6.8,6.8S4,15.6,4,11.8z"/>
</svg>
