<?xml version="1.0" encoding="utf-8"?>
<!-- Generator: Adobe Illustrator 23.0.1, SVG Export Plug-In . SVG Version: 6.00 Build 0)  -->
<svg version="1.1" id="圖層_1" xmlns="http://www.w3.org/2000/svg" xmlns:xlink="http://www.w3.org/1999/xlink" x="0px" y="0px"
	 viewBox="0 0 25 25" style="enable-background:new 0 0 25 25;" xml:space="preserve">
<style type="text/css">
	.st0{display:none;}
	.st1{fill:#E9E9E9;}
</style>
<rect x="-8.4" class="st0" width="25" height="25"/>
<rect x="16.6" class="st0" width="25" height="25"/>
<g>
	<g>
		<path class="st1" d="M20.1,13.4c-0.4,0-0.7,0.3-0.7,0.7v7h-3.7v-7c0-0.4-0.3-0.7-0.7-0.7h-5c-0.4,0-0.7,0.3-0.7,0.7v7H5.5v-7
			c0-0.4-0.3-0.7-0.7-0.7c-0.4,0-0.7,0.3-0.7,0.7v7.6c0,0.4,0.3,0.7,0.7,0.7h15.3c0.4,0,0.7-0.3,0.7-0.7v-7.6
			C20.8,13.7,20.5,13.4,20.1,13.4L20.1,13.4z M10.6,21v-6.3h3.7V21H10.6z"/>
		<path class="st1" d="M23.8,13.6L13,2.8c-0.3-0.3-0.7-0.3-1,0L1.2,13.6c-0.3,0.3-0.3,0.7,0,1s0.7,0.3,1,0L12.5,4.2l10.3,10.3
			c0.1,0.1,0.3,0.2,0.5,0.2s0.3-0.1,0.5-0.2C24,14.3,24,13.9,23.8,13.6L23.8,13.6z"/>
	</g>
</g>
</svg>
